<svg xmlns="http://www.w3.org/2000/svg" xmlns:xlink="http://www.w3.org/1999/xlink" width="180" height="42" viewBox="0 0 180 42">
    <defs>
        <path id="tp45ipbkna" d="M0 0L41.058 0 41.058 41.075 0 41.075z"/>
    </defs>
    <g fill="none" fill-rule="evenodd">
        <g>
            <g>
                <g>
                    <path fill="#202429" d="M63.678 24.837c-.051.346-.168.673-.344.968l-.005.007c-.047.078-.098.153-.152.226-.563.754-1.521 1.25-2.63 1.267H55.19v-5.678h5.357c.1.002.2.009.298.018.01 0 .02 0 .03.002 1.474.15 2.618 1.15 2.806 2.432.018.123.03.246.03.373 0 .13-.013.259-.032.385zm-8.49-11.032h4.107c1.34 0 2.39.937 2.39 2.132 0 1.207-1.072 2.19-2.39 2.19h-4.106v-4.322zm9.218 5.382c.75-.955 1.145-2.075 1.145-3.25 0-3.106-2.806-5.633-6.256-5.633H53.24c-1.057 0-1.917.78-1.917 1.736v17.03c0 .941.878 1.736 1.917 1.736.026 0 .048-.005.064-.01.02.006.041.01.064.01h7.18c3.875 0 7.028-2.85 7.028-6.354 0-2.116-1.182-4.073-3.17-5.265zM105.576 22.572l2.45-5.673 2.45 5.673h-4.9zm4.346-11.137l-.002-.005c-.328-.698-1.08-1.128-1.888-1.097-.8-.029-1.582.42-1.902 1.102L98.814 28.44c-.17.431-.154.897.047 1.313.217.447.621.788 1.144.96.219.064.433.093.673.093.818 0 1.549-.43 1.863-1.101l1.582-3.661h7.838l1.582 3.659c.275.66 1.01 1.103 1.83 1.103.262 0 .504-.034.68-.094.516-.171.92-.512 1.137-.96.201-.415.218-.88.046-1.316l-7.314-17.001zM140.687 10.593c-1.04 0-1.885.766-1.885 1.707v11.47l-10.115-12.572c-.585-.741-1.769-.913-2.643-.379-.513.34-.81.899-.774 1.481v16.77c0 .958.86 1.736 1.918 1.736 1.021 0 1.884-.795 1.884-1.736V17.515l10.006 12.465c.045.08.12.146.182.201.363.392.896.625 1.427.625 1.04 0 1.917-.795 1.917-1.736V12.3c0-.925-.878-1.707-1.917-1.707M156.227 27.27h-1.843v-13.5h1.843c4.136 0 7.5 3.015 7.5 6.72 0 3.773-3.294 6.75-7.5 6.78m0-17.001h-3.793c-1.075 0-1.917.762-1.917 1.736v17.03c0 .957.86 1.736 1.917 1.736h3.793c6.268 0 11.367-4.612 11.367-10.28 0-5.637-5.1-10.222-11.367-10.222M177.424 10.304c-1.075 0-1.917.763-1.917 1.736v17.03c0 .974.842 1.736 1.917 1.736 1.075 0 1.95-.778 1.95-1.736V12.04c0-.957-.875-1.736-1.95-1.736M83.756 19.454h-4.4v-5.649h4.4c1.744 0 3.162 1.28 3.162 2.854 0 1.541-1.418 2.795-3.162 2.795m7.028-2.795c0-3.504-3.153-6.355-7.028-6.355h-6.35c-1.074 0-1.916.763-1.916 1.736v17.03c0 .957.86 1.736 1.917 1.736 1.074 0 1.948-.779 1.948-1.736v-6.115l.642.003c.725.004 1.845.008 2.383-.005.736-.018 1.157-.006 1.842.184.5.138.99.38 1.418.698.317.236.533.468.66.708.192.366.201.796.185 1.169-.036.8-.03 1.614-.023 2.4.003.32.006.639.006.958 0 .957.86 1.736 1.917 1.736 1.074 0 1.948-.779 1.948-1.736l.001-4.199c0-.61-.172-1.201-.543-1.862-.127-.226-.268-.44-.42-.638-.27-.365-.597-.688-.994-.983 1.554-1.228 2.407-2.9 2.407-4.73M25.493 18.077c-.22 1.498-.896 2.857-1.956 3.904-1.347 1.33-3.239 2.062-5.328 2.062-.654 0-1.184-.53-1.184-1.184 0-3.81 2.497-6.771 5.964-7.287-.601-1.898-2.378-3.278-4.471-3.278-2.586 0-4.69 2.104-4.69 4.69v10.257H24.08c2.63 0 4.69-2.061 4.69-4.691 0-2.094-1.38-3.872-3.277-4.473" transform="translate(-380 -141) translate(0 110) translate(380 31)"/>
                    <path fill="#202429" d="M19.538 21.534c1.894-.421 3.233-1.752 3.58-3.582-1.805.355-3.15 1.71-3.58 3.582" transform="translate(-380 -141) translate(0 110) translate(380 31)"/>
                    <g transform="translate(-380 -141) translate(0 110) translate(380 31)">
                        <mask id="rp17wvcwpb" fill="#fff">
                            <use xlink:href="#tp45ipbkna"/>
                        </mask>
                        <path fill="#202429" d="M24.08 29.608H12.646c-.314 0-.615-.125-.837-.346-.222-.222-.347-.524-.347-.838v-11.44c0-3.891 3.165-7.058 7.055-7.058 3.425 0 6.288 2.455 6.924 5.697 3.242.637 5.695 3.5 5.695 6.927 0 3.958-3.1 7.058-7.056 7.058M20.53 0C9.19 0 0 9.195 0 20.537 0 31.88 9.191 41.075 20.53 41.075c11.337 0 20.528-9.195 20.528-20.538C41.058 9.195 31.868 0 20.53 0" mask="url(#rp17wvcwpb)"/>
                    </g>
                </g>
            </g>
        </g>
    </g>
</svg>
