<svg xmlns="http://www.w3.org/2000/svg" width="33" height="32" viewBox="0 0 33 32">
    <g fill="none" fill-rule="evenodd">
        <g>
            <g>
                <g transform="translate(-1066 -5830) translate(0 5809) translate(1066.5 21)">
                    <circle cx="16" cy="16" r="16" fill="#D3D7DF"/>
                    <path fill="#FFF" fill-rule="nonzero" d="M16.957 19.092C16.67 16.226 20 15.25 20 12.362 20 9.76 18.316 8.5 16.02 8.5c-1.666 0-3.025.834-4.02 2.033l1.55 1.504c.613-.67 1.283-1.138 2.125-1.138.995 0 1.626.65 1.626 1.667 0 1.952-3.253 3.253-2.794 6.526h2.45zm-1.225 5.005c1.014 0 1.76-.766 1.76-1.75 0-.985-.746-1.75-1.76-1.75-.995 0-1.742.765-1.742 1.75 0 .984.747 1.75 1.742 1.75z"/>
                </g>
            </g>
        </g>
    </g>
</svg>
