<svg xmlns="http://www.w3.org/2000/svg" xmlns:xlink="http://www.w3.org/1999/xlink" width="33" height="32" viewBox="0 0 33 32">
    <defs>
        <path id="a7p2rf89ra" d="M0 0.089L19.911 0.089 19.911 19.904 0 19.904z"/>
    </defs>
    <g fill="none" fill-rule="evenodd">
        <g>
            <g>
                <g>
                    <g transform="translate(-1434 -5830) translate(0 5809) translate(1066.5 21) translate(368)">
                        <circle cx="16" cy="16" r="16" fill="#D3D7DF"/>
                        <g>
                            <g transform="translate(6 6) translate(0 .007)">
                                <mask id="e5nut6s5db" fill="#fff">
                                    <use xlink:href="#a7p2rf89ra"/>
                                </mask>
                                <path fill="#FEFEFE" d="M18 13.07c0 2.725-2.22 4.933-4.957 4.933H6.868c-2.738 0-4.957-2.208-4.957-4.934V6.924C1.91 4.2 4.13 1.99 6.868 1.99h6.175C15.78 1.99 18 4.2 18 6.924v6.145zM13.776.09H6.135C2.746.09 0 2.822 0 6.194V13.8c0 3.371 2.746 6.104 6.135 6.104h7.641c3.389 0 6.135-2.733 6.135-6.104V6.195c0-3.372-2.746-6.106-6.135-6.106z" mask="url(#e5nut6s5db)"/>
                            </g>
                            <path fill="#FEFEFE" d="M9.995 13.178c-1.744 0-3.156-1.407-3.156-3.14 0-1.735 1.412-3.14 3.156-3.14 1.742 0 3.155 1.405 3.155 3.14 0 1.733-1.413 3.14-3.155 3.14m0-8.36c-2.897 0-5.245 2.337-5.245 5.22 0 2.882 2.348 5.22 5.245 5.22 2.896 0 5.245-2.338 5.245-5.22 0-2.883-2.349-5.22-5.245-5.22M16.438 4.737c0 .733-.599 1.327-1.335 1.327S13.77 5.47 13.77 4.737c0-.732.597-1.328 1.333-1.328s1.335.596 1.335 1.328" transform="translate(6 6)"/>
                        </g>
                    </g>
                </g>
            </g>
        </g>
    </g>
</svg>
