<svg xmlns="http://www.w3.org/2000/svg" width="33" height="32" viewBox="0 0 33 32">
    <g fill="none" fill-rule="evenodd">
        <g>
            <g>
                <g>
                    <g transform="translate(-1203 -5830) translate(0 5809) translate(1066.5 21) translate(137)">
                        <circle cx="16" cy="16" r="16" fill="#D3D7DF"/>
                        <path fill="#FFF" d="M20.38 16.19c-.582.708-1.438 1.067-2.545 1.067h-1.304v-1.91h.717c.535 0 .935-.14 1.225-.43.268-.27.404-.64.404-1.104-.024-.423-.176-.765-.453-1.016-.277-.248-.631-.374-1.052-.374h-1.395v7.124c0 .35-.1.649-.294.887-.194.235-.457.35-.803.35-.343 0-.61-.116-.813-.353-.204-.242-.303-.531-.303-.884v-7.684c0-.43.117-.758.358-1 .236-.24.573-.36 1.002-.36h2.402c1.133 0 1.996.283 2.567.84.21.201.398.44.559.708.162.27.287.557.371.854.084.3.126.601.126.898 0 .976-.258 1.779-.769 2.386m-9.043-.852h1.926v1.908h-1.926c-.309 0-.569-.086-.774-.259-.203-.169-.302-.398-.302-.703 0-.291.1-.516.307-.687.21-.175.462-.26.769-.26M16.145 6.5h-.157C11.025 6.5 7 10.523 7 15.488v.227c0 3.415 1.905 6.386 4.71 7.907-.066.325-.28.836-.61 1.28-.38.511-.86 1.107-1.08 1.342-.22.236-.02.343.64.173.66-.173 2.045-.705 3.08-1.302.465-.268.737-.422.929-.52.431.064.869.108 1.32.108h.156c4.963 0 8.987-4.024 8.987-8.988v-.227c0-4.965-4.024-8.988-8.987-8.988"/>
                    </g>
                </g>
            </g>
        </g>
    </g>
</svg>
