<svg xmlns="http://www.w3.org/2000/svg" width="60" height="60" viewBox="0 0 60 60">
    <g fill="none" fill-rule="evenodd">
        <g>
            <g transform="translate(-1000 -974) translate(1000 974)">
                <rect width="59.5" height="59.5" x=".25" y=".25" fill="#FFF" stroke="#D3D7DF" stroke-width=".5" rx="29.75"/>
                <path fill="#4285F4" d="M41.782 30.279c0-.87-.078-1.707-.223-2.51H30v4.747h6.605c-.285 1.534-1.15 2.834-2.449 3.704v3.08h3.966c2.321-2.137 3.66-5.283 3.66-9.021z"/>
                <path fill="#34A853" d="M30 42.273c3.314 0 6.092-1.1 8.122-2.974l-3.966-3.079c-1.099.736-2.505 1.172-4.156 1.172-3.196 0-5.902-2.16-6.867-5.06h-4.1v3.18c2.02 4.01 6.17 6.76 10.967 6.76z"/>
                <path fill="#FBBC05" d="M23.133 32.332c-.246-.737-.385-1.523-.385-2.332 0-.809.14-1.595.385-2.332v-3.18h-4.1C18.2 26.145 17.727 28.02 17.727 30c0 1.98.474 3.855 1.306 5.512l4.1-3.18z"/>
                <path fill="#EA4335" d="M30 22.608c1.802 0 3.42.62 4.692 1.836l3.52-3.52c-2.126-1.98-4.904-3.197-8.212-3.197-4.798 0-8.948 2.75-10.967 6.761l4.1 3.18c.965-2.9 3.67-5.06 6.867-5.06z"/>
            </g>
        </g>
    </g>
</svg>
