<svg xmlns="http://www.w3.org/2000/svg" width="60" height="60" viewBox="0 0 60 60">
    <g fill="none" fill-rule="evenodd">
        <g>
            <g>
                <g fill="#000">
                    <path d="M30 0c16.569 0 30 13.431 30 30 0 16.569-13.431 30-30 30C13.431 60 0 46.569 0 30 0 13.431 13.431 0 30 0z" transform="translate(-1094 -974) translate(1094 974)"/>
                </g>
                <path fill="#FFF" fill-rule="nonzero" d="M30.431 22.125c.999 0 2.25-.694 2.996-1.62.675-.839 1.167-2.01 1.167-3.182 0-.159-.014-.318-.042-.448-1.111.043-2.447.767-3.249 1.736-.633.737-1.21 1.894-1.21 3.08 0 .174.029.347.043.405.07.015.183.029.295.029zm-3.586 17.25c1.364 0 1.97-.94 3.67-.94 1.73 0 2.11.911 3.629.911 1.49 0 2.489-1.417 3.431-2.805 1.055-1.59 1.49-3.152 1.519-3.224-.099-.03-2.953-1.23-2.953-4.599 0-2.92 2.25-4.236 2.376-4.337-1.49-2.198-3.755-2.256-4.373-2.256-1.674 0-3.038 1.041-3.896 1.041-.928 0-2.151-.983-3.6-.983-2.756 0-5.554 2.342-5.554 6.767 0 2.747 1.04 5.653 2.32 7.533 1.097 1.59 2.053 2.892 3.431 2.892z" transform="translate(-1094 -974) translate(1094 974)"/>
            </g>
        </g>
    </g>
</svg>
